<?xml version="1.0" encoding="UTF-8"?><svg id="Layer_2" xmlns="http://www.w3.org/2000/svg" viewBox="0 0 216 216"><defs><style>.cls-1{fill:#ec6476;}.cls-1,.cls-2{stroke-width:0px;}.cls-2{fill:#051626;}</style></defs><g id="Left_pink"><rect class="cls-2" width="216" height="216" rx="22.11" ry="22.11"/><path class="cls-1" d="M27.78,14.4h160.44c7.39,0,13.38,6,13.38,13.38v160.44c0,7.39-6,13.38-13.38,13.38H27.78c-7.39,0-13.38-6-13.38-13.38V27.78c0-7.39,6-13.38,13.38-13.38Z" transform="translate(216) rotate(90)"/><path class="cls-2" d="M58.77,113.52l105.43,60.87c4.25,2.45,9.57-.61,9.57-5.52V47.13c0-4.91-5.31-7.98-9.57-5.52l-105.43,60.87c-4.25,2.45-4.25,8.59,0,11.05Z"/></g></svg>