<?xml version="1.0" encoding="UTF-8"?><svg id="Layer_2" xmlns="http://www.w3.org/2000/svg" viewBox="0 0 216 216"><defs><style>.cls-1{fill:#ec6476;}.cls-1,.cls-2{stroke-width:0px;}.cls-2{fill:#051626;}</style></defs><g id="Open_pink"><rect class="cls-2" width="216" height="216" rx="22.11" ry="22.11"/><path class="cls-1" d="M27.78,14.4h160.44c7.39,0,13.38,6,13.38,13.38v160.44c0,7.39-6,13.38-13.38,13.38H27.78c-7.39,0-13.38-6-13.38-13.38V27.78c0-7.39,6-13.38,13.38-13.38Z" transform="translate(216) rotate(90)"/><path class="cls-2" d="M60.82,57.3l23.25.31,7.51,8.84c2.04,2.39,4.94,3.77,7.96,3.77h55.63v76.15H60.82V57.3M59.62,51.29c-2.65,0-4.8,2.52-4.8,5.64v89.8c0,3.12,2.15,5.65,4.8,5.65h96.77c2.65,0,4.8-2.53,4.8-5.65v-76.86c0-3.12-2.15-5.65-4.8-5.65h-56.84c-1.27,0-2.49-.59-3.39-1.65l-7.9-9.29c-.89-1.04-2.08-1.64-3.34-1.65l-25.25-.34s-.04,0-.06,0h0Z"/><path class="cls-2" d="M57.77,144.61l22.36-58.91c.75-1.99,2.43-3.27,4.28-3.27h91.49c3.25,0,5.51,3.79,4.41,7.39l-18.02,58.91c-.67,2.19-2.44,3.65-4.41,3.65H62.05c-3.4,0-5.67-4.12-4.28-7.77Z"/></g></svg>