<?xml version="1.0" encoding="UTF-8"?><svg id="Layer_2" xmlns="http://www.w3.org/2000/svg" viewBox="0 0 216 216"><defs><style>.cls-1{fill:none;stroke:#ec6476;stroke-miterlimit:10;stroke-width:7px;}.cls-2{fill:#ec6476;}.cls-2,.cls-3{stroke-width:0px;}.cls-3{fill:#051626;}</style></defs><g id="Save_pink"><rect class="cls-3" width="216" height="216" rx="22.11" ry="22.11"/><path class="cls-2" d="M27.78,14.4h160.44c7.39,0,13.38,6,13.38,13.38v160.44c0,7.39-6,13.38-13.38,13.38H27.78c-7.39,0-13.38-6-13.38-13.38V27.78c0-7.39,6-13.38,13.38-13.38Z" transform="translate(216) rotate(90)"/><path class="cls-3" d="M165.58,172.93H50.42c-5.5,0-9.97-4.46-9.97-9.97V49.51c0-5.5,4.46-9.97,9.97-9.97h85.42c2.78,0,5.44,1.16,7.32,3.2l29.75,32.21c1.7,1.84,2.65,4.26,2.65,6.76v81.24c0,5.5-4.46,9.97-9.97,9.97Z"/><rect class="cls-1" x="58.81" y="20.1" width="67.77" height="63.54" rx="11.03" ry="11.03"/><rect class="cls-1" x="59.42" y="110.25" width="97.15" height="75.89" rx="11.03" ry="11.03"/><rect class="cls-2" x="75.01" y="125.15" width="65.97" height="7.89"/><rect class="cls-2" x="75.01" y="144.26" width="65.97" height="7.89"/></g></svg>