<?xml version="1.0" encoding="UTF-8"?><svg id="Layer_2" xmlns="http://www.w3.org/2000/svg" viewBox="0 0 14.09 14.09"><defs><style>.cls-1{fill:#444545;}</style></defs><g id="DepthSlider"><path class="cls-1" d="m13.94,11.34l-3.92-3.92c-.2-.2-.2-.53,0-.74l3.92-3.92c.2-.2.2-.53,0-.74l-1.86-1.86c-.2-.2-.53-.2-.74,0l-3.92,3.92c-.2.2-.53.2-.74,0L2.75.15c-.2-.2-.53-.2-.74,0L.15,2.01c-.2.2-.2.53,0,.74l3.92,3.92c.2.2.2.53,0,.74L.15,11.34c-.2.2-.2.53,0,.74l1.86,1.86c.2.2.53.2.74,0l3.92-3.92c.2-.2.53-.2.74,0l3.92,3.92c.2.2.53.2.74,0l1.86-1.86c.2-.2.2-.53,0-.74Z"/></g></svg>